# xmcd CD database file
#
# Track frame offsets:
#	183
#	14128
#	28708
#	43735
#	60150
#	74530
#	91988
#	103000
#	118373
#	134225
#
# Disc length: 2024 seconds
#
# Revision: 6
# Processed by: cddbd v1.5.2PL0 Copyright (c) Steve Scherf et al.
# Submitted via: CDex 1.51
#
DISCID=9607e60a
DTITLE=Forester Sisters - Greatest Hits
DYEAR=1989
DGENRE=Country
TTITLE0=(That's What You Do) When You're In Love
TTITLE1=I Fell In Love Again Last Night
TTITLE2=(I'd Choose) You Again
TTITLE3=Letter Home
TTITLE4=Leave It Alone
TTITLE5=Too Much Is Not Enough (Duet With The Bellamy Brothers)
TTITLE6=Just In Case
TTITLE7=Don't You
TTITLE8=Lonely Alone
TTITLE9=Sincerely
EXTD=YEAR: 1989
EXTT0=
EXTT1=
EXTT2=
EXTT3=
EXTT4=
EXTT5=
EXTT6=
EXTT7=
EXTT8=
EXTT9=
PLAYORDER=
